<?xml version="1.0" encoding="UTF-8" standalone="no"?>
<!DOCTYPE svg PUBLIC "-//W3C//DTD SVG 1.1//EN" "http://www.w3.org/Graphics/SVG/1.1/DTD/svg11.dtd">
<!-- Generated by Microsoft Visio, SVG Export Boot_Flow.svg Page-1 -->
<svg xmlns="http://www.w3.org/2000/svg" xmlns:xlink="http://www.w3.org/1999/xlink" xmlns:ev="http://www.w3.org/2001/xml-events"
		xmlns:v="http://schemas.microsoft.com/visio/2003/SVGExtensions/" width="4.03458in" height="6.1088in"
		viewBox="0 0 290.49 439.834" xml:space="preserve" color-interpolation-filters="sRGB" class="st15">
	<v:documentProperties v:langID="2052" v:metric="true" v:viewMarkup="false"/>

	<style type="text/css">
	<![CDATA[
		.st1 {fill:#f2f2f2;stroke:none;stroke-linecap:round;stroke-linejoin:round;stroke-width:0.239999}
		.st2 {fill:#c4d6a0;stroke:none;stroke-linecap:round;stroke-linejoin:round;stroke-width:0.239999}
		.st3 {fill:#000000;font-family:Calibri;font-size:0.75em}
		.st4 {font-size:1em}
		.st5 {fill:#92cddc;stroke:none;stroke-linecap:round;stroke-linejoin:round;stroke-width:0.239999}
		.st6 {marker-end:url(#mrkr4-15);stroke:#000000;stroke-linecap:round;stroke-linejoin:round;stroke-width:0.749999}
		.st7 {fill:#000000;fill-opacity:1;stroke:#000000;stroke-opacity:1;stroke-width:0.22935746150611}
		.st8 {fill:none;stroke:none;stroke-linecap:round;stroke-linejoin:round;stroke-width:0.749999}
		.st9 {marker-end:url(#mrkr4-15);stroke:#000000;stroke-linecap:round;stroke-linejoin:round;stroke-width:0.75}
		.st10 {fill:none;stroke:none;stroke-width:0.999999}
		.st11 {fill:none}
		.st12 {stroke:#000000;stroke-linecap:round;stroke-linejoin:round;stroke-width:0.75}
		.st13 {marker-start:url(#mrkr4-104);stroke:#000000;stroke-linecap:round;stroke-linejoin:round;stroke-width:0.75}
		.st14 {fill:#000000;fill-opacity:1;stroke:#000000;stroke-opacity:1;stroke-width:0.22935769717651}
		.st15 {fill:none;fill-rule:evenodd;font-size:12px;overflow:visible;stroke-linecap:square;stroke-miterlimit:3}
	]]>
	</style>

	<defs id="Markers">
		<g id="lend4">
			<path d="M 2 1 L 0 0 L 2 -1 L 2 1 " style="stroke:none"/>
		</g>
		<marker id="mrkr4-15" class="st7" v:arrowType="4" v:arrowSize="2" v:setback="0" refX="-0" orient="auto"
				markerUnits="strokeWidth" overflow="visible">
			<use xlink:href="#lend4" transform="scale(-4.3600063997628,-4.3600063997628) "/>
		</marker>
		<marker id="mrkr4-104" class="st14" v:arrowType="4" v:arrowSize="2" v:setback="0" refX="0" orient="auto"
				markerUnits="strokeWidth" overflow="visible">
			<use xlink:href="#lend4" transform="scale(4.3600019197543) "/>
		</marker>
	</defs>
	<g v:mID="0" v:index="1" v:groupContext="foregroundPage">
		<title>Page-1</title>
		<v:pageProperties v:drawingScale="1" v:pageScale="1" v:drawingUnits="19" v:shadowOffsetX="8.99991"
				v:shadowOffsetY="-8.99991"/>
		<v:layer v:name="Connector" v:index="0"/>
		<g id="shape42-1" v:mID="42" v:groupContext="shape" transform="translate(0.119999,-0.119999)">
			<title>Box.42</title>
			<desc>Update de-shading factor to LCCF module</desc>
			<v:userDefs>
				<v:ud v:nameU="visVersion" v:val="VT0(15):26"/>
			</v:userDefs>
			<rect x="0" y="0.240005" width="290.25" height="439.594" class="st1"/>
		</g>
		<g id="shape1-3" v:mID="1" v:groupContext="shape" transform="translate(29.25,-169.77)">
			<title>Rounded Rectangle.27</title>
			<desc>SPL</desc>
			<v:userDefs>
				<v:ud v:nameU="CTypeTopLeftSnip" v:prompt="" v:val="VT0(0):5"/>
				<v:ud v:nameU="CTypeTopRightSnip" v:prompt="" v:val="VT0(0):5"/>
				<v:ud v:nameU="CTypeBotLeftSnip" v:prompt="" v:val="VT0(0):5"/>
				<v:ud v:nameU="CTypeBotRightSnip" v:prompt="" v:val="VT0(0):5"/>
				<v:ud v:nameU="CornerLockHoriz" v:prompt="" v:val="VT0(1):5"/>
				<v:ud v:nameU="CornerLockVert" v:prompt="" v:val="VT0(1):5"/>
				<v:ud v:nameU="CornerLockDiag" v:prompt="" v:val="VT0(0):5"/>
				<v:ud v:nameU="TopLeftOffset" v:prompt="" v:val="VT0(0):26"/>
				<v:ud v:nameU="TopRightOffset" v:prompt="" v:val="VT0(0):26"/>
				<v:ud v:nameU="BotLeftOffset" v:prompt="" v:val="VT0(0):26"/>
				<v:ud v:nameU="BotRightOffset" v:prompt="" v:val="VT0(0):26"/>
				<v:ud v:nameU="visVersion" v:prompt="" v:val="VT0(15):26"/>
			</v:userDefs>
			<v:textBlock v:margins="rect(2,2,2,2)"/>
			<v:textRect cx="110.37" cy="411.084" width="220.74" height="57.4773"/>
			<path d="M22.07 439.83 L198.67 439.83 A22.0736 27.4496 -180 0 0 220.74 412.38 L220.74 409.8 A22.0736 27.4496 -180 0 0
						 198.67 382.35 L22.07 382.35 A22.0736 27.4496 -180 0 0 -0 409.8 L0 412.38 A22.0736 27.4496 -180 0 0 22.07
						 439.83 Z" class="st2"/>
			<text x="101.82" y="408.58" class="st3" v:langID="2052"><v:paragraph v:spLine="0.138889" v:horizAlign="1"
						v:bulletSize="0.166667"/><v:tabList/>QSPI<v:newlineChar/><tspan x="64.24" dy="1.111em" class="st4">(</tspan>SPL + OpenSBI + U-Boot)</text>		</g>
		<g id="shape2-7" v:mID="2" v:groupContext="shape" transform="translate(81.4796,-325.449)">
			<title>Box.53</title>
			<desc>Update de-shading factor to LCCF module</desc>
			<v:userDefs>
				<v:ud v:nameU="visVersion" v:val="VT0(15):26"/>
			</v:userDefs>
			<v:textBlock v:margins="rect(2,2,2,2)"/>
			<v:textRect cx="58.6897" cy="423.239" width="117.46" height="33.1873"/>
			<rect x="0" y="406.646" width="117.384" height="33.1873" class="st5"/>
			<text x="41.21" y="425.74" class="st3" v:langID="2052"><v:paragraph v:spLine="0.138889" v:horizAlign="1"
						v:bulletSize="0.166667"/><v:tabList/>Power on</text>		</g>
		<g id="shape3-10" v:mID="3" v:groupContext="shape" v:layerMember="0" transform="translate(140.075,-359.188)">
			<title>Dynamic connector</title>
			<path d="M0 410.58 L0 435.01 L0 439.83" class="st6"/>
		</g>
		<g id="shape4-16" v:mID="4" v:groupContext="shape" v:layerMember="0" transform="translate(139.979,-294.008)">
			<title>Dynamic connector.8</title>
			<path d="M0 408.47 L0 434.73 L0 439.83" class="st6"/>
		</g>
		<g id="shape5-21" v:mID="5" v:groupContext="shape" transform="translate(78.1046,-388.438)">
			<title>Rounded Rectangle</title>
			<desc>Start</desc>
			<v:userDefs>
				<v:ud v:nameU="CTypeTopLeftSnip" v:prompt="" v:val="VT0(0):5"/>
				<v:ud v:nameU="CTypeTopRightSnip" v:prompt="" v:val="VT0(0):5"/>
				<v:ud v:nameU="CTypeBotLeftSnip" v:prompt="" v:val="VT0(0):5"/>
				<v:ud v:nameU="CTypeBotRightSnip" v:prompt="" v:val="VT0(0):5"/>
				<v:ud v:nameU="CornerLockHoriz" v:prompt="" v:val="VT0(1):5"/>
				<v:ud v:nameU="CornerLockVert" v:prompt="" v:val="VT0(1):5"/>
				<v:ud v:nameU="CornerLockDiag" v:prompt="" v:val="VT0(0):5"/>
				<v:ud v:nameU="TopLeftOffset" v:prompt="" v:val="VT0(0):26"/>
				<v:ud v:nameU="TopRightOffset" v:prompt="" v:val="VT0(0):26"/>
				<v:ud v:nameU="BotLeftOffset" v:prompt="" v:val="VT0(0):26"/>
				<v:ud v:nameU="BotRightOffset" v:prompt="" v:val="VT0(0):26"/>
				<v:ud v:nameU="visVersion" v:prompt="" v:val="VT0(15):26"/>
			</v:userDefs>
			<v:textBlock v:margins="rect(2,2,2,2)"/>
			<v:textRect cx="61.8743" cy="421.763" width="123.75" height="36.1197"/>
			<path d="M12.37 439.83 L111.37 439.83 A12.3748 11.0364 -0 0 0 123.75 428.79 L123.75 414.74 A12.3748 11.0364 -0 0 0 111.37
						 403.71 L12.37 403.71 A12.3748 11.0364 -0 0 0 -0 414.74 L0 428.79 A12.3748 11.0364 -0 0 0 12.38 439.83 L12.37
						 439.83 Z" class="st2"/>
			<text x="53.07" y="424.26" class="st3" v:langID="2052"><v:paragraph v:spLine="0.138889" v:horizAlign="1"
						v:bulletSize="0.166667"/><v:tabList/>Start</text>		</g>
		<g id="shape6-24" v:mID="6" v:groupContext="shape" transform="translate(130.62,-234.27)">
			<title>Sheet.6</title>
			<desc>QSPI (Recommended)</desc>
			<v:userDefs/>
			<v:textBlock v:margins="rect(4,4,4,4)"/>
			<v:textRect cx="35.9994" cy="433.159" width="72" height="13.35"/>
			<rect x="0" y="426.484" width="71.9999" height="13.35" class="st8"/>
			<text x="15.84" y="435.86" class="st3" v:langID="2052"><v:paragraph v:horizAlign="1"/><v:tabList/>RGPIO[1,0]</text>		</g>
		<g id="shape7-27" v:mID="7" v:groupContext="shape" transform="translate(144.239,-93.7739)">
			<title>Sheet.7</title>
			<desc>QSPI/eMMC/SD</desc>
			<v:userDefs/>
			<v:textBlock v:margins="rect(4,4,4,4)"/>
			<v:textRect cx="38.2494" cy="433.159" width="76.5" height="13.35"/>
			<rect x="0" y="426.484" width="76.4999" height="13.35" class="st8"/>
			<text x="9.05" y="435.86" class="st3" v:langID="2052"><v:paragraph v:horizAlign="1"/><v:tabList/>QSPI/eMMC/SD</text>		</g>
		<g id="shape9-30" v:mID="9" v:groupContext="shape" transform="translate(77.8647,-257.819)">
			<title>Rounded Rectangle.25</title>
			<desc>Start</desc>
			<v:userDefs>
				<v:ud v:nameU="CTypeTopLeftSnip" v:prompt="" v:val="VT0(0):5"/>
				<v:ud v:nameU="CTypeTopRightSnip" v:prompt="" v:val="VT0(0):5"/>
				<v:ud v:nameU="CTypeBotLeftSnip" v:prompt="" v:val="VT0(0):5"/>
				<v:ud v:nameU="CTypeBotRightSnip" v:prompt="" v:val="VT0(0):5"/>
				<v:ud v:nameU="CornerLockHoriz" v:prompt="" v:val="VT0(1):5"/>
				<v:ud v:nameU="CornerLockVert" v:prompt="" v:val="VT0(1):5"/>
				<v:ud v:nameU="CornerLockDiag" v:prompt="" v:val="VT0(0):5"/>
				<v:ud v:nameU="TopLeftOffset" v:prompt="" v:val="VT0(0):26"/>
				<v:ud v:nameU="TopRightOffset" v:prompt="" v:val="VT0(0):26"/>
				<v:ud v:nameU="BotLeftOffset" v:prompt="" v:val="VT0(0):26"/>
				<v:ud v:nameU="BotRightOffset" v:prompt="" v:val="VT0(0):26"/>
				<v:ud v:nameU="visVersion" v:prompt="" v:val="VT0(15):26"/>
			</v:userDefs>
			<v:textBlock v:margins="rect(2,2,2,2)"/>
			<v:textRect cx="61.8743" cy="421.763" width="123.75" height="36.1197"/>
			<path d="M12.37 439.83 L111.37 439.83 A12.3748 11.0364 -0 0 0 123.75 428.79 L123.75 414.74 A12.3748 11.0364 -0 0 0 111.37
						 403.71 L12.37 403.71 A12.3748 11.0364 -0 0 0 -0 414.74 L0 428.79 A12.3748 11.0364 -0 0 0 12.38 439.83 L12.37
						 439.83 Z" class="st2"/>
			<text x="43.9" y="424.26" class="st3" v:langID="2052"><v:paragraph v:spLine="0.138889" v:horizAlign="1"
						v:bulletSize="0.166667"/><v:tabList/>BootROM</text>		</g>
		<g id="shape10-33" v:mID="10" v:groupContext="shape" transform="translate(9.2397,-85.2)">
			<title>Rounded Rectangle.28</title>
			<desc>OpenSBI + U-Boot</desc>
			<v:userDefs>
				<v:ud v:nameU="CTypeTopLeftSnip" v:prompt="" v:val="VT0(0):5"/>
				<v:ud v:nameU="CTypeTopRightSnip" v:prompt="" v:val="VT0(0):5"/>
				<v:ud v:nameU="CTypeBotLeftSnip" v:prompt="" v:val="VT0(0):5"/>
				<v:ud v:nameU="CTypeBotRightSnip" v:prompt="" v:val="VT0(0):5"/>
				<v:ud v:nameU="CornerLockHoriz" v:prompt="" v:val="VT0(1):5"/>
				<v:ud v:nameU="CornerLockVert" v:prompt="" v:val="VT0(1):5"/>
				<v:ud v:nameU="CornerLockDiag" v:prompt="" v:val="VT0(0):5"/>
				<v:ud v:nameU="TopLeftOffset" v:prompt="" v:val="VT0(0):26"/>
				<v:ud v:nameU="TopRightOffset" v:prompt="" v:val="VT0(0):26"/>
				<v:ud v:nameU="BotLeftOffset" v:prompt="" v:val="VT0(0):26"/>
				<v:ud v:nameU="BotRightOffset" v:prompt="" v:val="VT0(0):26"/>
				<v:ud v:nameU="visVersion" v:prompt="" v:val="VT0(15):26"/>
			</v:userDefs>
			<v:textBlock v:margins="rect(2,2,2,2)" v:verticalAlign="2"/>
			<v:textRect cx="137.25" cy="411.084" width="274.5" height="57.4773"/>
			<path d="M27.45 439.83 L247.05 439.83 A27.4496 27.4496 -180 0 0 274.5 412.38 L274.5 409.8 A27.4496 27.4496 -180 0 0 247.05
						 382.35 L27.45 382.35 A27.4496 27.4496 -180 0 0 0 409.8 L0 412.38 A27.4496 27.4496 -180 0 0 27.45 439.83
						 Z" class="st2"/>
			<text x="89.98" y="435.32" class="st3" v:langID="2052"><v:paragraph v:spLine="0.138889" v:horizAlign="1"
						v:bulletSize="0.166667"/><v:tabList/>Linux Kernel + File System</text>		</g>
		<g id="shape11-36" v:mID="11" v:groupContext="shape" transform="translate(20.4897,-100.448)">
			<title>Box.29</title>
			<desc>Update de-shading factor to LCCF module</desc>
			<v:userDefs>
				<v:ud v:nameU="visVersion" v:val="VT0(15):26"/>
			</v:userDefs>
			<v:textBlock v:margins="rect(2,2,2,2)"/>
			<v:textRect cx="37.1234" cy="423.239" width="74.3" height="33.1873"/>
			<rect x="0" y="406.646" width="74.25" height="33.1873" class="st5"/>
			<text x="25.58" y="425.74" class="st3" v:langID="2052"><v:paragraph v:spLine="0.138889" v:horizAlign="1"
						v:bulletSize="0.166667"/><v:tabList/>NVMe</text>		</g>
		<g id="shape12-39" v:mID="12" v:groupContext="shape" transform="translate(110.49,-100.448)">
			<title>Box.30</title>
			<desc>Update de-shading factor to LCCF module</desc>
			<v:userDefs>
				<v:ud v:nameU="visVersion" v:val="VT0(15):26"/>
			</v:userDefs>
			<v:textBlock v:margins="rect(2,2,2,2)"/>
			<v:textRect cx="37.1234" cy="423.239" width="74.3" height="33.1873"/>
			<rect x="0" y="406.646" width="74.25" height="33.1873" class="st5"/>
			<text x="24.79" y="425.74" class="st3" v:langID="2052"><v:paragraph v:spLine="0.138889" v:horizAlign="1"
						v:bulletSize="0.166667"/><v:tabList/>eMMC</text>		</g>
		<g id="shape13-42" v:mID="13" v:groupContext="shape" transform="translate(197.115,-100.448)">
			<title>Box.31</title>
			<desc>Update de-shading factor to LCCF module</desc>
			<v:userDefs>
				<v:ud v:nameU="visVersion" v:val="VT0(15):26"/>
			</v:userDefs>
			<v:textBlock v:margins="rect(2,2,2,2)"/>
			<v:textRect cx="37.1234" cy="423.239" width="74.3" height="33.1873"/>
			<rect x="0" y="406.646" width="74.25" height="33.1873" class="st5"/>
			<text x="22.78" y="425.74" class="st3" v:langID="2052"><v:paragraph v:spLine="0.138889" v:horizAlign="1"
						v:bulletSize="0.166667"/><v:tabList/>SD Card</text>		</g>
		<g id="shape14-45" v:mID="14" v:groupContext="shape" v:layerMember="0" transform="translate(144,-41.938)">
			<title>Dynamic connector.24</title>
			<path d="M0 381.33 L0 433.29 L0 439.83" class="st9"/>
		</g>
		<g id="group15-50" transform="translate(144,-70.628)" v:mID="15" v:groupContext="group">
			<title>Dynamic connector.25</title>
			<g id="shape16-51" v:mID="16" v:groupContext="shape" v:layerMember="0">
				<title>Sheet.16</title>
				<path d="M87.75 410.02 L87.75 439.83 L0 439.83 L87.75 410.02 Z" class="st10"/>
			</g>
			<g id="group17-53" v:mID="17" v:groupContext="group">
				<title>Sheet.17</title>
				<g id="shape18-54" v:mID="18" v:groupContext="shape" v:layerMember="0">
					<title>Sheet.18</title>
					<path d="M87.75 410.02 L87.75 439.83 L0 439.83 L87.75 410.02 Z" class="st10"/>
				</g>
				<g id="group19-56" v:mID="19" v:groupContext="group">
					<title>Sheet.19</title>
					<g id="shape20-57" v:mID="20" v:groupContext="shape" v:layerMember="0">
						<title>Sheet.20</title>
						<path d="M87.75 410.02 L87.75 439.83 L0 439.83 L87.75 410.02 Z" class="st10"/>
					</g>
					<g id="group21-59" v:mID="21" v:groupContext="group">
						<title>Sheet.21</title>
						<g id="shape22-60" v:mID="22" v:groupContext="shape" v:layerMember="0">
							<title>Sheet.22</title>
							<path d="M87.75 410.02 L87.75 439.83 L0 439.83 L87.75 410.02 Z" class="st10"/>
						</g>
						<g id="group23-62" v:mID="23" v:groupContext="group">
							<title>Sheet.23</title>
							<g id="shape24-63" v:mID="24" v:groupContext="shape" v:layerMember="0">
								<title>Sheet.24</title>
								<path d="M87.75 410.02 L87.75 439.83 L0 439.83 L87.75 410.02 Z" class="st10"/>
							</g>
							<g id="shape25-65" v:mID="25" v:groupContext="shape" v:layerMember="0">
								<title>Sheet.25</title>
								<path d="M87.75 410.02 L87.75 439.83 L0 439.83 L87.75 410.02 Z" class="st11"/>
								<path d="M87.75 410.02 L87.75 439.83 L0 439.83" class="st12"/>
							</g>
						</g>
					</g>
				</g>
			</g>
		</g>
		<g id="group26-68" transform="translate(54.5601,-41.938)" v:mID="26" v:groupContext="group">
			<title>Dynamic connector.34</title>
			<g id="shape27-69" v:mID="27" v:groupContext="shape" v:layerMember="0">
				<title>Sheet.27</title>
				<path d="M0 381.33 L0 411.14 L89.44 411.14 L89.44 439.83 L0 381.33 Z" class="st10"/>
			</g>
			<g id="group28-71" v:mID="28" v:groupContext="group">
				<title>Sheet.28</title>
				<g id="shape29-72" v:mID="29" v:groupContext="shape" v:layerMember="0">
					<title>Sheet.29</title>
					<path d="M0 381.33 L0 411.14 L89.44 411.14 L89.44 439.83 L0 381.33 Z" class="st10"/>
				</g>
				<g id="group30-74" v:mID="30" v:groupContext="group">
					<title>Sheet.30</title>
					<g id="shape31-75" v:mID="31" v:groupContext="shape" v:layerMember="0">
						<title>Sheet.31</title>
						<path d="M0 381.33 L0 411.14 L89.44 411.14 L89.44 439.83 L0 381.33 Z" class="st10"/>
					</g>
					<g id="group32-77" v:mID="32" v:groupContext="group">
						<title>Sheet.32</title>
						<g id="shape33-78" v:mID="33" v:groupContext="shape" v:layerMember="0">
							<title>Sheet.33</title>
							<path d="M0 381.33 L0 411.14 L89.44 411.14 L89.44 439.83 L0 381.33 Z" class="st10"/>
						</g>
						<g id="group34-80" v:mID="34" v:groupContext="group">
							<title>Sheet.34</title>
							<g id="shape35-81" v:mID="35" v:groupContext="shape" v:layerMember="0">
								<title>Sheet.35</title>
								<path d="M0 381.33 L0 411.14 L89.44 411.14 L89.44 439.83 L0 381.33 Z" class="st10"/>
							</g>
							<g id="shape36-83" v:mID="36" v:groupContext="shape" v:layerMember="0">
								<title>Sheet.36</title>
								<path d="M0 381.33 L0 411.14 L89.44 411.14 L89.44 439.83 L0 381.33 Z" class="st11"/>
								<path d="M0 381.33 L0 411.14 L89.44 411.14 L89.44 439.83" class="st12"/>
							</g>
						</g>
					</g>
				</g>
			</g>
		</g>
		<g id="shape37-86" v:mID="37" v:groupContext="shape" v:layerMember="0" transform="translate(139.62,-227.344)">
			<title>Dynamic connector.51</title>
			<path d="M0 408.47 L0 434.73 L0 439.83" class="st6"/>
		</g>
		<g id="shape38-91" v:mID="38" v:groupContext="shape" transform="translate(85.62,-4.744)">
			<title>Rounded Rectangle.52</title>
			<desc>Start</desc>
			<v:userDefs>
				<v:ud v:nameU="CTypeTopLeftSnip" v:prompt="" v:val="VT0(0):5"/>
				<v:ud v:nameU="CTypeTopRightSnip" v:prompt="" v:val="VT0(0):5"/>
				<v:ud v:nameU="CTypeBotLeftSnip" v:prompt="" v:val="VT0(0):5"/>
				<v:ud v:nameU="CTypeBotRightSnip" v:prompt="" v:val="VT0(0):5"/>
				<v:ud v:nameU="CornerLockHoriz" v:prompt="" v:val="VT0(1):5"/>
				<v:ud v:nameU="CornerLockVert" v:prompt="" v:val="VT0(1):5"/>
				<v:ud v:nameU="CornerLockDiag" v:prompt="" v:val="VT0(0):5"/>
				<v:ud v:nameU="TopLeftOffset" v:prompt="" v:val="VT0(0):26"/>
				<v:ud v:nameU="TopRightOffset" v:prompt="" v:val="VT0(0):26"/>
				<v:ud v:nameU="BotLeftOffset" v:prompt="" v:val="VT0(0):26"/>
				<v:ud v:nameU="BotRightOffset" v:prompt="" v:val="VT0(0):26"/>
				<v:ud v:nameU="visVersion" v:prompt="" v:val="VT0(15):26"/>
			</v:userDefs>
			<v:textBlock v:margins="rect(2,2,2,2)"/>
			<v:textRect cx="61.8743" cy="421.763" width="123.75" height="36.1197"/>
			<path d="M12.37 439.83 L111.37 439.83 A12.3748 11.0364 -0 0 0 123.75 428.79 L123.75 414.74 A12.3748 11.0364 -0 0 0 111.37
						 403.71 L12.37 403.71 A12.3748 11.0364 -0 0 0 -0 414.74 L0 428.79 A12.3748 11.0364 -0 0 0 12.38 439.83 L12.37
						 439.83 Z" class="st2"/>
			<text x="34.41" y="424.26" class="st3" v:langID="2052"><v:paragraph v:spLine="0.138889" v:horizAlign="1"
						v:bulletSize="0.166667"/><v:tabList/>Boot Complete</text>		</g>
		<g id="shape39-94" v:mID="39" v:groupContext="shape" v:layerMember="0" transform="translate(56.3101,-134.45)">
			<title>Dynamic connector.55</title>
			<path d="M85.5 403.28 L85.5 421.5 L0 421.5 L0 433.29 L0 439.83" class="st9"/>
		</g>
		<g id="shape40-99" v:mID="40" v:groupContext="shape" v:layerMember="0" transform="translate(141.81,-134.452)">
			<title>Dynamic connector.56</title>
			<path d="M0 439.83 L0 433.65 L0 433.29 L0 403.29" class="st13"/>
		</g>
		<g id="shape41-105" v:mID="41" v:groupContext="shape" v:layerMember="0" transform="translate(141.69,-134.452)">
			<title>Dynamic connector.57</title>
			<path d="M90 439.83 L90 433.65 L90 433.29 L90 421.5 L0 421.5 L0 403.29" class="st13"/>
		</g>
	</g>
</svg>
